<?xml version="1.0" encoding="UTF-8" standalone="no"?>
<svg
   xmlns:i="http://ns.adobe.com/AdobeIllustrator/10.0/"
   xmlns:dc="http://purl.org/dc/elements/1.1/"
   xmlns:cc="http://creativecommons.org/ns#"
   xmlns:rdf="http://www.w3.org/1999/02/22-rdf-syntax-ns#"
   xmlns:svg="http://www.w3.org/2000/svg"
   xmlns="http://www.w3.org/2000/svg"
   xmlns:sodipodi="http://sodipodi.sourceforge.net/DTD/sodipodi-0.dtd"
   xmlns:inkscape="http://www.inkscape.org/namespaces/inkscape"
   version="1.1"
   x="0px"
   y="0px"
   viewBox="0 0 75 75"
   enable-background="new 0 0 100 100"
   xml:space="preserve"
   id="svg2"
   inkscape:version="0.91 r13725"
   sodipodi:docname="light.svg"
   width="75"
   height="75"><metadata
     id="metadata26"><rdf:RDF><cc:Work
         rdf:about=""><dc:format>image/svg+xml</dc:format><dc:type
           rdf:resource="http://purl.org/dc/dcmitype/StillImage" /><dc:title /></cc:Work></rdf:RDF></metadata><defs
     id="defs24" /><sodipodi:namedview
     pagecolor="#ffffff"
     bordercolor="#666666"
     borderopacity="1"
     objecttolerance="10"
     gridtolerance="10"
     guidetolerance="10"
     inkscape:pageopacity="0"
     inkscape:pageshadow="2"
     inkscape:window-width="1920"
     inkscape:window-height="1017"
     id="namedview22"
     showgrid="false"
     inkscape:zoom="10.680141"
     inkscape:cx="25.062527"
     inkscape:cy="35.719885"
     inkscape:window-x="-8"
     inkscape:window-y="-8"
     inkscape:window-maximized="1"
     inkscape:current-layer="g6" /><g
     i:extraneous="self"
     id="g6"
     transform="translate(0,-50)"><path
       d="m 54.610644,72.503271 c 0,-9.601 -7.526,-17.12 -17.134,-17.12 -9.457,0 -17.183,7.536 -17.501,16.918 -0.011,0.09 -0.011,0.182 -0.007,0.275 -0.002,0.107 -0.009,0.215 -0.009,0.324 0,0.201 0.042,0.392 0.107,0.57 0.286,2.062 1.248,7.596 3.715,11.072 1.269,1.787 1.705,3.434 1.832,4.955 -0.019,0.098 -0.031,0.197 -0.031,0.301 l 0,7.258 c 0,3.142999 2.558,5.700999 5.701,5.700999 l 11.926,0 c 3.144,0 5.701,-2.559 5.701,-5.700999 l 0,-3.16 c 0.045,-0.15 0.076,-0.305 0.076,-0.469 0,-0.414 -0.018,-0.854 -0.036,-1.314 -0.091,-2.207 -0.194,-4.708 1.836,-7.57 3.014,-4.246 3.783,-11.565 3.814,-11.875 0.003,-0.027 -0.001,-0.055 0,-0.082 0.003,-0.029 0.01,-0.055 0.01,-0.083 z m -6.508,10.135 c -1.771,2.494 -2.309,4.811 -2.442,6.805 -0.025,0.115 -0.041,0.232 -0.041,0.355 l 0,7.258 c 0,1.328 -1.08,2.408 -2.409,2.408 l -11.926,0 c -1.328,0 -2.408,-1.08 -2.408,-2.408 l 0,-3.629 c 0,-0.373 0.016,-0.766 0.033,-1.178 0.102,-2.461 0.24,-5.832 -2.441,-9.611 -2.291,-3.229 -3.08,-9.1 -3.205,-10.139 0.212,-7.658 6.505,-13.823 14.213,-13.823 7.866,0 13.802,5.906 13.84,13.752 -0.094,0.816 -0.866,6.902 -3.214,10.21 z"
       id="path8"
       inkscape:connector-curvature="0"
       style="fill:#ffffff;fill-opacity:1;stroke:none;stroke-opacity:1" /><g
       id="g10"
       style="fill:#ffffff;fill-opacity:1;stroke:none;stroke-opacity:1"
       transform="translate(-13.506356,37.076271)"><path
         d="m 50.793,83.693 c -4.3,0 -7.797,-3.498 -7.797,-7.797 0,-0.908 0.736,-1.646 1.646,-1.646 0.908,0 1.646,0.738 1.646,1.646 0,2.484 2.021,4.504 4.505,4.504 2.482,0 4.503,-2.02 4.503,-4.504 0,-0.908 0.737,-1.646 1.646,-1.646 0.908,0 1.646,0.738 1.646,1.646 0,4.299 -3.497,7.797 -7.795,7.797 z"
         id="path12"
         inkscape:connector-curvature="0"
         style="fill:#ffffff;fill-opacity:1;stroke:none;stroke-opacity:1" /></g><g
       id="g14"
       style="fill:#ffffff;fill-opacity:1;stroke:none;stroke-opacity:1"
       transform="translate(-13.506356,37.076271)"><path
         d="m 58.068,71.752 -14.552,0 c -0.909,0 -1.646,-0.738 -1.646,-1.646 0,-0.908 0.737,-1.646 1.646,-1.646 l 14.553,0 c 0.909,0 1.646,0.738 1.646,1.646 0,0.908 -0.737,1.646 -1.647,1.646 z"
         id="path16"
         inkscape:connector-curvature="0"
         style="fill:#ffffff;fill-opacity:1;stroke:none;stroke-opacity:1" /></g><path
       style="fill:#ffffff;fill-opacity:1;stroke:none;stroke-width:2.33899999;stroke-miterlimit:4;stroke-dasharray:none;stroke-dashoffset:0;stroke-opacity:1"
       d="m 37.013556,6.7734485 c -5.980107,0.034613 -11.65194,3.8703375 -14.145768,9.2681745 -1.177628,2.573655 -1.907308,5.502969 -1.288655,8.322603 0.592901,3.568411 1.676157,7.124472 3.764289,10.118178 0.955937,1.608616 1.644369,3.43931 1.548583,5.337292 0.07011,2.704459 0.02833,5.428844 0.136902,8.141876 0.309902,1.505627 1.545822,2.811938 3.022984,3.251285 1.940587,0.282307 3.918696,0.117706 5.874476,0.173549 2.649978,-0.01824 5.30704,0.04478 7.952558,-0.02746 1.85676,-0.334654 3.567146,-1.952506 3.62559,-3.912211 0.207873,-3.116693 0.0174,-6.244764 0.277969,-9.357686 0.363181,-1.833719 1.292331,-3.477571 2.320207,-5.013854 1.734307,-2.896491 2.506797,-6.250056 3.018082,-9.552463 C 53.805023,17.602888 50.513596,11.517961 45.283523,8.7084934 42.771552,7.2746559 39.887359,6.6996333 37.013556,6.7734485 Z"
       id="path4146"
       inkscape:connector-curvature="0"
       transform="translate(0,50)" /></g></svg>