<?xml version="1.0" encoding="UTF-8" standalone="no"?>
<svg
   xmlns:dc="http://purl.org/dc/elements/1.1/"
   xmlns:cc="http://creativecommons.org/ns#"
   xmlns:rdf="http://www.w3.org/1999/02/22-rdf-syntax-ns#"
   xmlns:svg="http://www.w3.org/2000/svg"
   xmlns="http://www.w3.org/2000/svg"
   xmlns:sodipodi="http://sodipodi.sourceforge.net/DTD/sodipodi-0.dtd"
   xmlns:inkscape="http://www.inkscape.org/namespaces/inkscape"
   version="1.1"
   x="0px"
   y="0px"
   viewBox="0 0 75 75"
   enable-background="new 0 0 90 90"
   xml:space="preserve"
   id="svg2"
   inkscape:version="0.91 r13725"
   sodipodi:docname="sound.svg"
   width="75"
   height="75"><metadata
     id="metadata24"><rdf:RDF><cc:Work
         rdf:about=""><dc:format>image/svg+xml</dc:format><dc:type
           rdf:resource="http://purl.org/dc/dcmitype/StillImage" /><dc:title /></cc:Work></rdf:RDF></metadata><defs
     id="defs22" /><sodipodi:namedview
     pagecolor="#ffffff"
     bordercolor="#666666"
     borderopacity="1"
     objecttolerance="10"
     gridtolerance="10"
     guidetolerance="10"
     inkscape:pageopacity="0"
     inkscape:pageshadow="2"
     inkscape:window-width="1920"
     inkscape:window-height="1017"
     id="namedview20"
     showgrid="false"
     inkscape:zoom="11.866823"
     inkscape:cx="26.237846"
     inkscape:cy="36.444668"
     inkscape:window-x="-8"
     inkscape:window-y="-8"
     inkscape:window-maximized="1"
     inkscape:current-layer="g4152" /><g
     id="g4152"
     transform="translate(0.49194313,0.61311828)"><g
       transform="matrix(0.72931963,0,0,0.72931963,3.994401,3.7768645)"
       id="g4"
       style="fill:#ffffff;fill-opacity:1"><path
         inkscape:connector-curvature="0"
         id="path6"
         d="M 36.976,79.859 19.487,63 4.664,63 3,61.193 3,33.459 4.664,32 19.381,32 36.856,10.938 40,11.894 l 0,66.705 -3.024,1.26 z M 6,59 20.166,59 21.69,59.74 37,74.641 37,16.529 21.809,34.456 20.166,35 6,35 6,59 Z"
         style="fill:#ffffff;fill-opacity:1" /></g><g
       transform="matrix(0.72931963,0,0,0.72931963,3.994401,3.7768645)"
       id="g8"
       style="fill:#ffffff;fill-opacity:1"><path
         inkscape:connector-curvature="0"
         id="path10"
         d="m 75.73,73.279 -2.353,-2.353 c 14.439,-14.44 14.439,-37.936 0,-52.376 l 2.353,-2.353 c 15.737,15.737 15.737,41.344 0,57.082 z"
         style="fill:#ffffff;fill-opacity:1" /></g><g
       transform="matrix(0.72931963,0,0,0.72931963,3.994401,3.7768645)"
       id="g12"
       style="fill:#ffffff;fill-opacity:1"><path
         inkscape:connector-curvature="0"
         id="path14"
         d="m 58.535,62.74 -2.353,-2.353 c 8.628,-8.629 8.628,-22.669 0,-31.298 l 2.353,-2.353 c 9.926,9.926 9.926,26.078 0,36.004 z"
         style="fill:#ffffff;fill-opacity:1" /></g><path
       style="fill:#ffffff;fill-opacity:1;stroke:none;stroke-width:2.33899999;stroke-miterlimit:4;stroke-dasharray:none;stroke-dashoffset:0;stroke-opacity:1"
       d="m 30.618659,14.881465 c -1.018628,0.534223 -1.591814,1.604302 -2.382121,2.402918 -2.994425,3.49189 -5.954586,7.012943 -8.929286,10.521606 -0.812286,0.303117 -1.721335,0.07259 -2.575292,0.145919 -2.67323,0.0204 -5.352145,-0.02997 -8.0218099,0.03473 -1.186516,0.05687 -1.980298,1.26716 -1.8316869,2.394647 0.00888,5.701467 -0.01773,11.405751 0.013293,17.10546 0.025027,1.180267 1.1832635,2.050772 2.3238425,1.916849 3.2069782,-3.1e-5 6.4139562,2e-5 9.6209342,1.64e-4 1.435595,1.143235 2.690748,2.510252 4.033213,3.763769 2.431368,2.339909 4.812997,4.735293 7.296672,7.018761 0.994902,0.799228 2.666738,0.364634 3.074835,-0.863114 0.321589,-0.906539 0.110268,-1.910566 0.183779,-2.856812 0.04487,-13.017594 0.07046,-26.035792 -0.01835,-39.053203 0.07954,-0.962037 -0.223263,-2.091537 -1.199124,-2.478902 -0.490907,-0.263429 -1.074398,-0.218723 -1.588902,-0.05279 z"
       id="path4139"
       inkscape:connector-curvature="0"
       transform="translate(-0.49194313,-0.61311828)" /></g></svg>