<?xml version="1.0" encoding="UTF-8" standalone="no"?>
<svg
   xmlns:sketch="http://www.bohemiancoding.com/sketch/ns"
   xmlns:dc="http://purl.org/dc/elements/1.1/"
   xmlns:cc="http://creativecommons.org/ns#"
   xmlns:rdf="http://www.w3.org/1999/02/22-rdf-syntax-ns#"
   xmlns:svg="http://www.w3.org/2000/svg"
   xmlns="http://www.w3.org/2000/svg"
   xmlns:sodipodi="http://sodipodi.sourceforge.net/DTD/sodipodi-0.dtd"
   xmlns:inkscape="http://www.inkscape.org/namespaces/inkscape"
   viewBox="0 0 75 75"
   version="1.1"
   x="0px"
   y="0px"
   id="svg2"
   inkscape:version="0.91 r13725"
   sodipodi:docname="video.svg"
   width="75"
   height="75">
  <metadata
     id="metadata18">
    <rdf:RDF>
      <cc:Work
         rdf:about="">
        <dc:format>image/svg+xml</dc:format>
        <dc:type
           rdf:resource="http://purl.org/dc/dcmitype/StillImage" />
        <dc:title>camera_recorder</dc:title>
      </cc:Work>
    </rdf:RDF>
  </metadata>
  <defs
     id="defs16" />
  <sodipodi:namedview
     pagecolor="#ffffff"
     bordercolor="#666666"
     borderopacity="1"
     objecttolerance="10"
     gridtolerance="10"
     guidetolerance="10"
     inkscape:pageopacity="0"
     inkscape:pageshadow="2"
     inkscape:window-width="1920"
     inkscape:window-height="1017"
     id="namedview14"
     showgrid="false"
     inkscape:zoom="4.1153615"
     inkscape:cx="37.260573"
     inkscape:cy="43.602761"
     inkscape:window-x="-8"
     inkscape:window-y="-8"
     inkscape:window-maximized="1"
     inkscape:current-layer="svg2" />
  <title
     id="title4">camera_recorder</title>
  <g
     sketch:type="MSPage"
     id="g6"
     style="fill:#ffffff;fill-rule:evenodd;stroke:none;stroke-width:1;fill-opacity:1"
     transform="matrix(0.65098797,0,0,0.65098797,5.4231097,16.134021)">
    <path
       d="M 9.0909091,0 C 9.0909091,0 0,0 0,9.1428571 L 0,54.857143 C 0,64 9.0909091,64 9.0909091,64 L 65.909091,64 C 65.909091,64 75,64 75,54.857143 L 75,46.222222 100,64 100,0 75,17.777778 75,9.1428571 C 75,0 65.909091,0 65.909091,0 L 9.0909091,0 Z M 9.55,5 C 9.55,5 5,5 5,9.5833333 L 5,54.416667 C 5,59 9.55,59 9.55,59 l 55.875,0 c 0,0 4.55,0 4.55,-4.583333 l 0,-9.949074 6.073071,-3.261702 L 95,55.416667 95,9.5833333 76.228469,23.66562 69.975,20.532407 l 0,-10.9490737 C 69.975,5 65.425,5 65.425,5 L 9.55,5 Z m 0,0"
       sketch:type="MSShapeGroup"
       id="path8"
       inkscape:connector-curvature="0"
       style="fill:#ffffff;fill-opacity:1" />
  </g>
</svg>
