<?xml version="1.0" encoding="UTF-8" standalone="no"?>
<svg
   xmlns:sketch="http://www.bohemiancoding.com/sketch/ns"
   xmlns:dc="http://purl.org/dc/elements/1.1/"
   xmlns:cc="http://creativecommons.org/ns#"
   xmlns:rdf="http://www.w3.org/1999/02/22-rdf-syntax-ns#"
   xmlns:svg="http://www.w3.org/2000/svg"
   xmlns="http://www.w3.org/2000/svg"
   xmlns:sodipodi="http://sodipodi.sourceforge.net/DTD/sodipodi-0.dtd"
   xmlns:inkscape="http://www.inkscape.org/namespaces/inkscape"
   viewBox="0 0 75 75"
   version="1.1"
   x="0px"
   y="0px"
   id="svg2"
   inkscape:version="0.91 r13725"
   sodipodi:docname="other.svg"
   width="75"
   height="75">
  <metadata
     id="metadata22">
    <rdf:RDF>
      <cc:Work
         rdf:about="">
        <dc:format>image/svg+xml</dc:format>
        <dc:type
           rdf:resource="http://purl.org/dc/dcmitype/StillImage" />
        <dc:title>action_042-detail-more-info-others</dc:title>
      </cc:Work>
    </rdf:RDF>
  </metadata>
  <defs
     id="defs20" />
  <sodipodi:namedview
     pagecolor="#ffffff"
     bordercolor="#666666"
     borderopacity="1"
     objecttolerance="10"
     gridtolerance="10"
     guidetolerance="10"
     inkscape:pageopacity="0"
     inkscape:pageshadow="2"
     inkscape:window-width="1920"
     inkscape:window-height="1017"
     id="namedview18"
     showgrid="false"
     inkscape:zoom="6.2933333"
     inkscape:cx="15"
     inkscape:cy="18.75"
     inkscape:window-x="-8"
     inkscape:window-y="-8"
     inkscape:window-maximized="1"
     inkscape:current-layer="svg2" />
  <title
     id="title4">action_042-detail-more-info-others</title>
  <desc
     id="desc6">Created with Sketch.</desc>
  <g
     sketch:type="MSPage"
     id="g8"
     style="fill:#ffffff;fill-rule:evenodd;stroke:none;stroke-width:1;fill-opacity:1"
     transform="matrix(3.538634,0,0,3.538634,-13.810193,-13.810193)">
    <g
       sketch:type="MSArtboardGroup"
       transform="translate(-90,-225)"
       id="g10"
       style="fill:#ffffff;fill-opacity:1">
      <path
         d="m 98.5,242 c 1.380712,0 2.5,-1.11929 2.5,-2.5 0,-1.38071 -1.119288,-2.5 -2.5,-2.5 -1.380712,0 -2.5,1.11929 -2.5,2.5 0,1.38071 1.119288,2.5 2.5,2.5 z m 0,-1 c 0.828427,0 1.5,-0.67157 1.5,-1.5 0,-0.82843 -0.671573,-1.5 -1.5,-1.5 -0.828427,0 -1.5,0.67157 -1.5,1.5 0,0.82843 0.671573,1.5 1.5,1.5 z m 6,1 c 1.38071,0 2.5,-1.11929 2.5,-2.5 0,-1.38071 -1.11929,-2.5 -2.5,-2.5 -1.38071,0 -2.5,1.11929 -2.5,2.5 0,1.38071 1.11929,2.5 2.5,2.5 z m 0,-1 c 0.82843,0 1.5,-0.67157 1.5,-1.5 0,-0.82843 -0.67157,-1.5 -1.5,-1.5 -0.82843,0 -1.5,0.67157 -1.5,1.5 0,0.82843 0.67157,1.5 1.5,1.5 z m 6,1 c 1.38071,0 2.5,-1.11929 2.5,-2.5 0,-1.38071 -1.11929,-2.5 -2.5,-2.5 -1.38071,0 -2.5,1.11929 -2.5,2.5 0,1.38071 1.11929,2.5 2.5,2.5 z m 0,-1 c 0.82843,0 1.5,-0.67157 1.5,-1.5 0,-0.82843 -0.67157,-1.5 -1.5,-1.5 -0.82843,0 -1.5,0.67157 -1.5,1.5 0,0.82843 0.67157,1.5 1.5,1.5 z"
         sketch:type="MSShapeGroup"
         id="path12"
         inkscape:connector-curvature="0"
         style="fill:#ffffff;fill-opacity:1" />
    </g>
  </g>
</svg>
